<?xml version="1.0" encoding="utf-8"?>
<!-- Generator: Adobe Illustrator 28.1.0, SVG Export Plug-In . SVG Version: 6.00 Build 0)  -->
<svg version="1.1" id="Layer_1" xmlns="http://www.w3.org/2000/svg" xmlns:xlink="http://www.w3.org/1999/xlink" x="0px" y="0px"
	 viewBox="0 0 60 60" style="enable-background:new 0 0 60 60;" xml:space="preserve">
<style type="text/css">
	.st0{fill:#FFFFFF;}
</style>
<path d="M16.14,17.17c0.08,0.49,2.21,0.08,2.81,1.21c0.34,0.64,0.1,1.63-0.38,2.2c-0.54,0.64-1.1,0.42-1.52,1.06
	c-0.32,0.49-0.13,0.83-0.3,1.9c-0.15,0.93-0.42,1.49-0.53,1.82c-0.81,2.38,1.34,5.67,1.75,6.3c0.69,1.07,1.56,2.43,3.23,3.38
	c1.61,0.92,2.92,0.87,3.38,1.97c0.33,0.78,0.02,1.63-0.19,2.2c-0.68,1.87-2.18,2.48-1.94,3.08c0.15,0.37,0.92,0.59,1.52,0.38
	c1.6-0.57,1.11-3.96,2.35-4.25c0.67-0.16,1.43,0.69,1.75,1.21c0.68,1.14,0.28,2.5,0.08,3.19c-0.44,1.49-1.27,2.25-0.99,2.58
	c0.19,0.23,0.77,0.1,1.14-0.08c1.6-0.75,1.81-3.49,1.82-3.72c0.09-1.34-0.29-1.95,0.15-2.35c0.5-0.46,1.2,0.17,2.28-0.15
	c0.66-0.19,0.81-0.55,2.28-2.2c1.16-1.31,1.76-1.97,2.51-2.51c0.99-0.71,1.96-1.05,2.58-1.21c2.38,0.08,4.76,0.15,7.14,0.23
	c0.21-0.24,1.62-1.87,1.29-4.1c-0.3-1.98-1.86-3.64-3.95-4.18c-1.67,0.73-3.34,1.47-5.01,2.2c-2.11-0.53-3.86-1.04-5.16-1.44
	c-2.6-0.81-3.96-1.12-5.32-2.06c-0.58-0.4-1.35-0.94-2.09-1.9c-1.4-1.82-0.84-2.77-1.94-4.18c-1.63-2.08-4.54-2.13-4.86-2.13
	C17.94,15.66,16.06,16.69,16.14,17.17z"/>
<g>
	<path d="M11.93,21.49c-0.47-0.71,2.29-4.22,5.38-4.09c0.35,0.01,1.8,0.12,2.19,0.96c0.42,0.91-0.56,2.36-1.75,2.92
		c-0.82,0.39-1.17,0.08-3.84,0.2C12.32,21.55,12.05,21.67,11.93,21.49z"/>
	<path class="st0" d="M11.93,21.49c-0.17-0.8,0.57-1.52,1.04-2.09c1.52-1.76,4.77-3.29,6.67-1.27c0.78,1.63-1.31,3.62-2.9,3.49
		c-1.42-0.12-2.82-0.15-4.24-0.03C12.32,21.57,12.07,21.65,11.93,21.49L11.93,21.49z M11.93,21.49c0.15,0.16,0.38,0.07,0.57,0.07
		c1.4-0.14,2.84-0.2,4.24-0.2c1.29,0.03,3.04-1.75,2.48-2.97c-1.67-1.66-4.73-0.45-6.2,1.06C12.54,20,11.79,20.69,11.93,21.49
		L11.93,21.49z"/>
</g>
<g>
	<path d="M28.37,26.6c-1.25,0.15-3.87,0.48-4.39,1.9c-0.6,1.63,1.83,4.04,4.06,5.24c3.6,1.92,7.54,1.14,11.41,0.38
		c2.64-0.52,6.69-1.62,11.19-4.19c-4.67,0.13-8.29-0.53-10.8-1.19C35.61,27.63,32.78,26.05,28.37,26.6z"/>
	<path class="st0" d="M28.37,26.6c-7.87,0.65-3.73,5.79,0.95,7.58c2.82,1,5.86,0.54,8.74-0.02c4.38-0.78,8.61-2.25,12.49-4.43
		c0,0,0.11,0.41,0.11,0.41c-3.8,0.07-7.61-0.39-11.25-1.44C35.81,27.63,32.2,26.05,28.37,26.6L28.37,26.6z M28.37,26.6
		c3.82-0.59,7.46,0.98,11.08,1.94c3.65,0.97,7.43,1.28,11.19,1.16c0,0,0.86-0.02,0.86-0.02l-0.75,0.43
		c-3.88,2.27-8.19,3.76-12.62,4.48c-2.91,0.53-6.05,0.89-8.89-0.2C24.6,32.46,20.38,27.2,28.37,26.6L28.37,26.6z"/>
</g>
</svg>
